HIERARCHY
ROOT Hips
{
  OFFSET 5.84602e-005 68.8428 3.50346
  CHANNELS 6 Xposition Yposition Zposition Zrotation Xrotation Yrotation
  JOINT Spine
  {
    OFFSET 0 8.597 -4.6522
    CHANNELS 3 Zrotation Xrotation Yrotation
    JOINT Spine1
    {
      OFFSET 0 7.8454 0.4098
      CHANNELS 3 Zrotation Xrotation Yrotation
      JOINT Spine2
      {
        OFFSET 0 9.7078 -2.1609
        CHANNELS 3 Zrotation Xrotation Yrotation
        JOINT Neck
        {
          OFFSET 0 21.8761 -0.4549
          CHANNELS 3 Zrotation Xrotation Yrotation
          JOINT Head
          {
            OFFSET 0 12.3537 3.3602
            CHANNELS 3 Zrotation Xrotation Yrotation
            End Site
            {
              OFFSET 0.0001 18.9506 0.5657
            }
          }
        }
        JOINT LeftShoulder
        {
          OFFSET 2.2086 21.1115 7.2329
          CHANNELS 3 Zrotation Xrotation Yrotation
          JOINT LeftArm
          {
            OFFSET 13.1193 3.0282 -4.8998
            CHANNELS 3 Zrotation Xrotation Yrotation
            JOINT LeftForeArm
            {
              OFFSET 27.4081 -0.0973053 -0.2375
              CHANNELS 3 Zrotation Xrotation Yrotation
              JOINT LeftHand
              {
                OFFSET 22.8641 0.0662994 -0.1369
                CHANNELS 3 Zrotation Xrotation Yrotation
                JOINT LeftHandIndex1
                {
                  OFFSET 8.8614 0.775009 2.4612
                  CHANNELS 3 Zrotation Xrotation Yrotation
                  JOINT LeftHandIndex2
                  {
                    OFFSET 3.3146 -0.808304 0.5841
                    CHANNELS 3 Zrotation Xrotation Yrotation
                    JOINT LeftHandIndex3
                    {
                      OFFSET 2.2628 -0.552002 0.3989
                      CHANNELS 3 Zrotation Xrotation Yrotation
                      End Site
                      {
                        OFFSET 1.6102 -0.4807 0.2612
                      }
                    }
                  }
                }
                JOINT LeftHandMiddle1
                {
                  OFFSET 8.9937 0.895004 0.2143
                  CHANNELS 3 Zrotation Xrotation Yrotation
                  JOINT LeftHandMiddle2
                  {
                    OFFSET 4.0984 0.0113983 -0.0242
                    CHANNELS 3 Zrotation Xrotation Yrotation
                    JOINT LeftHandMiddle3
                    {
                      OFFSET 2.2716 0.00689697 -0.0138001
                      CHANNELS 3 Zrotation Xrotation Yrotation
                      End Site
                      {
                        OFFSET 2.0404 -0.1441 0.0027
                      }
                    }
                  }
                }
                JOINT LeftHandRing1
                {
                  OFFSET 8.5234 0.597198 -2.0164
                  CHANNELS 3 Zrotation Xrotation Yrotation
                  JOINT LeftHandRing2
                  {
                    OFFSET 3.7188 -0.188293 -0.2328
                    CHANNELS 3 Zrotation Xrotation Yrotation
                    JOINT LeftHandRing3
                    {
                      OFFSET 2.1191 -0.106598 -0.1332
                      CHANNELS 3 Zrotation Xrotation Yrotation
                      End Site
                      {
                        OFFSET 1.8737 -0.2304 -0.0886
                      }
                    }
                  }
                }
                JOINT LeftHandPinky1
                {
                  OFFSET 7.9094 -0.601089 -3.4825
                  CHANNELS 3 Zrotation Xrotation Yrotation
                  JOINT LeftHandPinky2
                  {
                    OFFSET 2.2874 -0.477005 -0.6314
                    CHANNELS 3 Zrotation Xrotation Yrotation
                    JOINT LeftHandPinky3
                    {
                      OFFSET 1.6774 -0.349396 -0.4633
                      CHANNELS 3 Zrotation Xrotation Yrotation
                      End Site
                      {
                        OFFSET 1.4888 -0.4091 -0.3416
                      }
                    }
                  }
                }
                JOINT LeftHandThumb1
                {
                  OFFSET 1.833 -1.3875 1.3896
                  CHANNELS 3 Zrotation Xrotation Yrotation
                  JOINT LeftHandThumb2
                  {
                    OFFSET 3.4129 -1.121 2.5732
                    CHANNELS 3 Zrotation Xrotation Yrotation
                    JOINT LeftHandThumb3
                    {
                      OFFSET 2.2474 -0.804199 1.6192
                      CHANNELS 3 Zrotation Xrotation Yrotation
                      End Site
                      {
                        OFFSET 1.6527 -0.5689 1.1317
                      }
                    }
                  }
                }
              }
            }
          }
        }
        JOINT RightShoulder
        {
          OFFSET -2.2086 21.1115 7.2329
          CHANNELS 3 Zrotation Xrotation Yrotation
          JOINT RightArm
          {
            OFFSET -13.1216 3.0287 -4.9007
            CHANNELS 3 Zrotation Xrotation Yrotation
            JOINT RightForeArm
            {
              OFFSET -27.4081 -0.0973053 -0.2375
              CHANNELS 3 Zrotation Xrotation Yrotation
              JOINT RightHand
              {
                OFFSET -22.8641 0.0664063 -0.1369
                CHANNELS 3 Zrotation Xrotation Yrotation
                JOINT RightHandIndex1
                {
                  OFFSET -8.8614 0.774994 2.4612
                  CHANNELS 3 Zrotation Xrotation Yrotation
                  JOINT RightHandIndex2
                  {
                    OFFSET -3.3146 -0.808304 0.5841
                    CHANNELS 3 Zrotation Xrotation Yrotation
                    JOINT RightHandIndex3
                    {
                      OFFSET -2.2628 -0.552002 0.3989
                      CHANNELS 3 Zrotation Xrotation Yrotation
                      End Site
                      {
                        OFFSET -1.6102 -0.4807 0.2612
                      }
                    }
                  }
                }
                JOINT RightHandMiddle1
                {
                  OFFSET -8.9937 0.894989 0.2143
                  CHANNELS 3 Zrotation Xrotation Yrotation
                  JOINT RightHandMiddle2
                  {
                    OFFSET -4.0984 0.0113983 -0.0242
                    CHANNELS 3 Zrotation Xrotation Yrotation
                    JOINT RightHandMiddle3
                    {
                      OFFSET -2.2716 0.00691223 -0.0138001
                      CHANNELS 3 Zrotation Xrotation Yrotation
                      End Site
                      {
                        OFFSET -2.0404 -0.1441 0.0027
                      }
                    }
                  }
                }
                JOINT RightHandRing1
                {
                  OFFSET -8.5234 0.597198 -2.0164
                  CHANNELS 3 Zrotation Xrotation Yrotation
                  JOINT RightHandRing2
                  {
                    OFFSET -3.7188 -0.188309 -0.2328
                    CHANNELS 3 Zrotation Xrotation Yrotation
                    JOINT RightHandRing3
                    {
                      OFFSET -2.1191 -0.106598 -0.1332
                      CHANNELS 3 Zrotation Xrotation Yrotation
                      End Site
                      {
                        OFFSET -1.8737 -0.2304 -0.0886
                      }
                    }
                  }
                }
                JOINT RightHandPinky1
                {
                  OFFSET -7.9094 -0.601105 -3.4825
                  CHANNELS 3 Zrotation Xrotation Yrotation
                  JOINT RightHandPinky2
                  {
                    OFFSET -2.2874 -0.477005 -0.6314
                    CHANNELS 3 Zrotation Xrotation Yrotation
                    JOINT RightHandPinky3
                    {
                      OFFSET -1.6774 -0.349396 -0.4633
                      CHANNELS 3 Zrotation Xrotation Yrotation
                      End Site
                      {
                        OFFSET -1.4888 -0.4091 -0.3416
                      }
                    }
                  }
                }
                JOINT RightHandThumb1
                {
                  OFFSET -1.833 -1.38751 1.3896
                  CHANNELS 3 Zrotation Xrotation Yrotation
                  JOINT RightHandThumb2
                  {
                    OFFSET -3.41299 -1.12099 2.5732
                    CHANNELS 3 Zrotation Xrotation Yrotation
                    JOINT RightHandThumb3
                    {
                      OFFSET -2.24741 -0.804108 1.6192
                      CHANNELS 3 Zrotation Xrotation Yrotation
                      End Site
                      {
                        OFFSET -1.6527 -0.5689 1.1317
                      }
                    }
                  }
                }
              }
            }
          }
        }
      }
    }
  }
  JOINT RightUpLeg
  {
    OFFSET -9.1966 3.8861 -0.7581
    CHANNELS 3 Zrotation Xrotation Yrotation
    JOINT RightLeg
    {
      OFFSET -0.7359 -41.0265 0
      CHANNELS 3 Zrotation Xrotation Yrotation
      JOINT RightFoot
      {
        OFFSET 0 -40.2855 0
        CHANNELS 3 Zrotation Xrotation Yrotation
        JOINT RightToeBase
        {
          OFFSET 0 -5.6122 11.7359
          CHANNELS 3 Zrotation Xrotation Yrotation
          End Site
          {
            OFFSET 0 0 7.8731
          }
        }
      }
    }
  }
  JOINT LeftUpLeg
  {
    OFFSET 9.1965 3.8864 -0.7581
    CHANNELS 3 Zrotation Xrotation Yrotation
    JOINT LeftLeg
    {
      OFFSET 0.7359 -41.0268 0
      CHANNELS 3 Zrotation Xrotation Yrotation
      JOINT LeftFoot
      {
        OFFSET 0 -40.2855 0
        CHANNELS 3 Zrotation Xrotation Yrotation
        JOINT LeftToeBase
        {
          OFFSET 0 -5.6122 11.7359
          CHANNELS 3 Zrotation Xrotation Yrotation
          End Site
          {
            OFFSET 0 0 7.8731
          }
        }
      }
    }
  }
}
MOTION
Frames:	5
Frame Time:	0.0333333
7.39685e-005 3.57171 8.60568 -0 -82.0004 -0 -0.0186417 -3.06723 -0.152809 -0.0455874 -6.13441 -0.307281 -0.0455873 -6.13439 -0.307281 9.03251e-007 17.9984 1.0224e-006 18.589 8.90909 3.75293 -15.833 14.1707 3.82501 -68.6813 -7.3515 -52.8354 -15.397 34.8763 0.357525 -42.3439 -22.8118 8.38364 1.35288e-006 -6.67783e-007 -6.77296e-007 1.02412e-006 -4.81808e-007 -4.69628e-007 6.36111e-015 4.77083e-015 3.18055e-015 1.35288e-006 -6.67783e-007 -6.77296e-007 -0.0146266 -8.80819e-005 -2.28717e-006 6.36111e-015 0 9.54166e-015 1.35288e-006 -6.67783e-007 -6.77296e-007 -0.018739 -0.00117418 5.85864e-005 9.54166e-015 -6.36111e-015 -3.18055e-015 1.35288e-006 -6.67783e-007 -6.77296e-007 -0.0122753 -0.00324861 0.000671795 -3.18055e-015 1.59028e-014 3.18055e-015 1.35288e-006 -6.67783e-007 -6.77296e-007 1.02412e-006 -4.81808e-007 -4.69628e-007 6.36111e-015 4.77083e-015 3.18055e-015 15.8298 14.1703 -3.8281 68.6775 -7.3555 52.832 15.3927 34.8764 -0.357744 42.3393 -22.8128 -8.3879 2.69215e-006 1.32139e-006 -1.37115e-006 -3.18055e-015 -9.54166e-015 3.18055e-015 2.69215e-006 1.32139e-006 -1.37115e-006 2.69215e-006 1.32139e-006 -1.37115e-006 0.0150008 -9.82539e-005 -1.92085e-006 2.69226e-006 1.32121e-006 -1.37133e-006 2.69215e-006 1.32139e-006 -1.37115e-006 0.0190142 -0.00119081 -5.97486e-005 2.69228e-006 1.32115e-006 -1.3714e-006 2.69215e-006 1.32139e-006 -1.37115e-006 0.012258 -0.00324646 -0.000675811 2.69219e-006 1.32123e-006 -1.37137e-006 2.69215e-006 1.32139e-006 -1.37115e-006 -3.18055e-015 -9.54166e-015 3.18055e-015 2.69215e-006 1.32139e-006 -1.37115e-006 -17.0374 -15.0362 -50.8061 -1.96826 48.7663 -0.101753 -4.21064 14.2077 0.926963 -4.27141e-006 7.15693e-007 2.69713e-006 17.0336 -15.0381 50.8018 1.96528 48.7669 0.0991808 4.20793 14.2075 -0.930156 3.47785e-006 -1.32403e-006 4.17534e-007 
-0.000342898 3.90466 8.60703 -0 -82.0004 -0 -0.0171298 -3.35957 -0.152728 -0.0433604 -6.71907 -0.30726 -0.0433605 -6.71905 -0.307259 8.45342e-007 17.9983 -4.43378e-007 18.3412 8.90238 3.70313 -15.3881 15.7282 5.11741 -69.217 -6.67001 -53.0699 -15.8556 34.8527 0.355999 -42.3439 -22.8118 8.38362 3.04795e-007 -1.92835e-007 -2.05525e-007 -3.18055e-015 3.18055e-015 -0 1.35325e-006 -6.65997e-007 -6.8046e-007 3.04795e-007 -1.92835e-007 -2.05525e-007 -0.014598 -8.56788e-005 -1.70802e-006 3.03709e-007 -1.92815e-007 -2.0555e-007 3.04795e-007 -1.92835e-007 -2.05525e-007 -0.0187374 -0.00117844 5.67978e-005 1.35331e-006 -6.65882e-007 -6.80583e-007 3.04795e-007 -1.92835e-007 -2.05525e-007 -0.0122769 -0.00324585 0.000673632 1.35327e-006 -6.65921e-007 -6.80572e-007 3.04795e-007 -1.92835e-007 -2.05525e-007 -3.18055e-015 3.18055e-015 -0 1.35325e-006 -6.65997e-007 -6.8046e-007 15.3496 15.7033 -5.16669 69.2234 -6.6566 53.0687 15.8647 34.8484 -0.356105 42.3393 -22.8128 -8.3879 2.69313e-006 1.31669e-006 -1.37771e-006 3.18055e-015 -1.59028e-015 -3.18055e-015 6.36111e-015 4.77083e-015 -3.18055e-015 2.69313e-006 1.31669e-006 -1.37771e-006 0.0149914 -9.74381e-005 -1.61882e-006 -3.18055e-015 -1.59028e-015 3.18055e-015 2.69313e-006 1.31669e-006 -1.37771e-006 0.0189749 -0.00119728 -6.20589e-005 -3.18055e-015 0 3.18055e-015 2.69313e-006 1.31669e-006 -1.37771e-006 0.0122709 -0.00324954 -0.000669325 3.18055e-015 -3.18055e-015 -9.54166e-015 2.69313e-006 1.31669e-006 -1.37771e-006 3.18055e-015 -1.59028e-015 -3.18055e-015 6.36111e-015 4.77083e-015 -3.18055e-015 -16.3539 -15.0055 -49.0514 -1.96784 48.7585 -0.0708806 -2.91516 14.215 -0.602685 -3.47541e-006 -1.32423e-006 -4.29625e-007 16.5918 -14.7914 49.6815 1.96445 48.7516 0.0787677 3.37975 14.1705 -0.0465027 3.30102e-006 9.66266e-007 1.43109e-006 
-0.000717638 4.23765 8.60845 -0 -82.0004 -0 -0.0156105 -3.65285 -0.152835 -0.0411336 -7.30563 -0.307611 -0.0411336 -7.30564 -0.307611 -8.6404e-007 17.9988 1.16426e-006 18.0934 8.89585 3.65328 -14.9758 17.298 6.41013 -69.7493 -5.98619 -53.2977 -16.3142 34.8283 0.354442 -42.3439 -22.8118 8.38364 -3.78102e-006 1.79043e-006 1.84597e-006 6.36111e-015 0 3.18055e-015 -3.18055e-015 -7.95139e-015 -0 -3.78102e-006 1.79043e-006 1.84597e-006 -0.0146361 -8.91368e-005 1.71407e-006 -3.18055e-015 -1.90833e-014 -3.18055e-015 -3.78102e-006 1.79043e-006 1.84597e-006 -0.0187547 -0.00118069 6.04526e-005 -7.06225e-031 6.36111e-015 6.36111e-015 -3.78102e-006 1.79043e-006 1.84597e-006 -0.0122832 -0.00325198 0.000683604 -0 -7.95139e-015 -0 -3.78102e-006 1.79043e-006 1.84597e-006 6.36111e-015 0 3.18055e-015 -3.18055e-015 -7.95139e-015 -0 14.9023 17.2498 -6.50515 69.7659 -5.95521 53.2984 16.3368 34.8198 -0.354429 42.3393 -22.8128 -8.38791 -3.18055e-015 -3.18055e-015 -3.18055e-015 1.01538e-006 3.59863e-007 -4.36241e-007 6.36111e-015 3.18055e-015 -6.36111e-015 -3.18055e-015 -3.18055e-015 -3.18055e-015 0.0150101 -8.90447e-005 2.59991e-006 3.18055e-015 1.11319e-014 -0 -3.18055e-015 -3.18055e-015 -3.18055e-015 0.0190047 -0.001191 -5.86419e-005 -9.54166e-015 -6.36111e-015 -3.18055e-015 -3.18055e-015 -3.18055e-015 -3.18055e-015 0.0122568 -0.00324947 -0.000677851 -6.36111e-015 1.59028e-015 -0 -3.18055e-015 -3.18055e-015 -3.18055e-015 1.01538e-006 3.59863e-007 -4.36241e-007 6.36111e-015 3.18055e-015 -6.36111e-015 -15.6708 -14.9542 -47.2954 -1.9674 48.7499 -0.0392929 -1.61842 14.1884 -2.1348 -3.47303e-006 -1.32422e-006 -4.41733e-007 16.1551 -14.536 48.5639 1.96363 48.7357 0.0582054 2.55224 14.1211 0.836981 5.91185e-006 -1.52138e-006 -2.07256e-006 
-0.00104765 4.57067 8.60997 -0 -82.0004 -0 -0.0141023 -3.94672 -0.153116 -0.0389452 -7.89338 -0.308309 -0.0389454 -7.89336 -0.308309 5.43292e-006 17.9984 -1.34765e-006 17.8455 8.88954 3.60339 -14.5968 18.8784 7.7041 -70.2784 -5.30012 -53.5189 -16.7727 34.8033 0.352793 -42.3439 -22.8118 8.38363 -1.8951e-006 4.45069e-006 9.58602e-007 -1.35422e-006 6.61095e-007 6.87267e-007 -0 0 3.18055e-015 -1.8951e-006 4.45069e-006 9.58602e-007 -0.0145911 -8.49829e-005 -2.92731e-006 6.36111e-015 3.18055e-015 -0 -1.8951e-006 4.45069e-006 9.58602e-007 -0.0187529 -0.00117509 5.93402e-005 1.10125e-006 -4.50892e-007 -4.80075e-007 -1.8951e-006 4.45069e-006 9.58602e-007 -0.0122691 -0.00323822 0.000673078 -3.18055e-015 3.18055e-015 -0 -1.8951e-006 4.45069e-006 9.58602e-007 -1.35422e-006 6.61095e-007 6.87267e-007 -0 0 3.18055e-015 14.4889 18.8078 -7.84432 70.3051 -5.25154 53.5212 16.8088 34.7904 -0.352734 42.3393 -22.8128 -8.38791 1.65376e-006 9.58669e-007 -9.5721e-007 -6.11933e-007 -6.12872e-007 5.2258e-007 1.65376e-006 9.58669e-007 -9.5721e-007 1.65376e-006 9.58669e-007 -9.5721e-007 0.0149744 -8.93633e-005 -6.67806e-007 1.6527e-006 9.5855e-007 -9.57337e-007 1.65376e-006 9.58669e-007 -9.5721e-007 0.0190027 -0.00118586 -6.13894e-005 1.6524e-006 9.58595e-007 -9.57382e-007 1.65376e-006 9.58669e-007 -9.5721e-007 0.0122764 -0.00325301 -0.000675171 1.65286e-006 9.58806e-007 -9.57312e-007 1.65376e-006 9.58669e-007 -9.5721e-007 -6.11933e-007 -6.12872e-007 5.2258e-007 1.65376e-006 9.58669e-007 -9.5721e-007 -14.9892 -14.8824 -45.5395 -1.96691 48.7408 -0.00699214 -0.322189 14.1279 -3.6676 -3.37638e-006 5.3019e-007 2.35931e-006 15.724 -14.2721 47.4494 1.9628 48.7196 0.0375227 1.72575 14.0592 1.71992 -2.65035e-007 4.08835e-006 -1.83e-006 
-0.00133272 4.90372 8.61158 -0 -82.0004 -0 -0.0126222 -4.24081 -0.153553 -0.0368295 -8.48159 -0.309322 -0.0368296 -8.48158 -0.309322 4.50613e-006 17.998 -2.27772e-006 17.5975 8.88347 3.55347 -14.2521 20.4671 9.00039 -70.8043 -4.61202 -53.7336 -17.2312 34.7777 0.351106 -42.3439 -22.8118 8.38365 3.18055e-015 6.36111e-015 -0 9.54166e-015 9.54166e-015 3.18055e-015 3.18055e-015 9.54166e-015 -6.36111e-015 3.18055e-015 6.36111e-015 -0 -0.0146196 -8.93971e-005 -7.76694e-006 -6.36111e-015 -2.54444e-014 -0 3.18055e-015 6.36111e-015 -0 -0.0187533 -0.00117911 6.23531e-005 -3.18055e-015 -6.36111e-015 -3.18055e-015 3.18055e-015 6.36111e-015 -0 -0.0122785 -0.00325384 0.000674549 -1.59028e-014 -4.77083e-015 3.18055e-015 3.18055e-015 6.36111e-015 -0 9.54166e-015 9.54166e-015 3.18055e-015 3.18055e-015 9.54166e-015 -6.36111e-015 14.1101 20.3754 -9.18522 70.8409 -4.54579 53.7371 17.2807 34.7603 -0.350957 42.3393 -22.8128 -8.3879 -3.18055e-015 -1.59028e-015 -6.36111e-015 -7.06225e-031 -1.27222e-014 -3.18055e-015 6.36111e-015 1.59028e-015 3.18055e-015 -3.18055e-015 -1.59028e-015 -6.36111e-015 0.0150416 -8.83543e-005 3.88709e-006 -2.11868e-030 -1.90833e-014 -6.36111e-015 -3.18055e-015 -1.59028e-015 -6.36111e-015 0.0189869 -0.00119284 -5.66565e-005 1.07077e-006 3.29995e-007 -4.31064e-007 -3.18055e-015 -1.59028e-015 -6.36111e-015 0.0122689 -0.00324591 -0.000673014 1.05934e-030 -6.36111e-015 9.54166e-015 -3.18055e-015 -1.59028e-015 -6.36111e-015 -7.06225e-031 -1.27222e-014 -3.18055e-015 6.36111e-015 1.59028e-015 3.18055e-015 -14.3101 -14.7901 -43.7848 -1.96639 48.7309 0.0259707 0.971862 14.0336 -5.1994 -3.71655e-006 2.20526e-006 -1.24231e-007 15.2987 -13.9999 46.3384 1.96194 48.7033 0.0167298 0.900699 13.9848 2.60193 1.01444e-006 6.4898e-006 7.78911e-007 
